# xmcd CD database file
#
# Track frame offsets:
#	150
#	21530
#	42430
#	65080
#	83767
#	103590
#	120212
#	137855
#	164375
#
# Disc length: 2482 seconds
#
# Revision: 5
# Processed by: cddbd v1.5.2PL0 Copyright (c) Steve Scherf et al.
# Submitted via: CDex 1.51
#
DISCID=7809b009
DTITLE=George Harrison - Dark Horse
DYEAR=1974
DGENRE=Rock
TTITLE0=Hari's On Tour (Express)
TTITLE1=Simple Shady
TTITLE2=So Sad
TTITLE3=Bye Bye, Love
TTITLE4=Maya Love
TTITLE5=Ding Dong, Ding Dong
TTITLE6=Dark Horse
TTITLE7=Far East Man
TTITLE8=It Is "He" (Jai Sri Krishna)
EXTD=YEAR: 1974
EXTT0=
EXTT1=
EXTT2=
EXTT3=
EXTT4=
EXTT5=
EXTT6=
EXTT7=
EXTT8=
PLAYORDER=
